<svg xmlns="http://www.w3.org/2000/svg" width="600" height="126" viewBox="0 0 600 126" version="1"><path fill="#fff" fill-rule="evenodd" d="M159.6 34.4c-9 0-16.3 1.8-19.2 2.8l-2.9 15.9s14.6-4 21-3.7c10.7.4 11.7 4.1 11.5 9 .2.4-2.7-4.4-12-4.6-11.6-.2-28 4.1-28 21.7-.3 19.8 14.8 25.6 25 25.7 9.3-.2 13.6-3.5 16-5.3 3-3.2 6.7-6.5 10-10.4a63 63 0 0 1-8.9 13v2.5l14-2.3.2-38.2c-.2-5.4 3-26-26.7-26zm-2 33.2c5.8.1 12.4 3 12.4 9.9 0 6.3-7.8 9.6-13 9.6-5 0-11.9-4-12-10.2.2-5.4 6.5-9.4 12.6-9.3zm38-29.6l-.2 63.1 16.4-3.1V62.2c0-5.4 7.6-11.6 17.2-11.5 2-3.7 5.8-13 6.8-15.2-21.4 0-21.7 6.1-25.4 9.2v-9.3L195.5 38zm92 8.2c-.2 0-8.6-9.7-25.4-9.8-15.8-.3-33.5 5.8-33.7 32.3.1 23.2 17 32.3 33.8 32.4 18 .2 25.1-11.2 25.6-11.5-2.2-1.9-10.2-9.8-10.2-9.8s-5 7.1-14.8 7.2c-9.8.1-18.2-7.5-18.4-18.2 0-10.6 7.8-16.4 18.5-16.9 9.2 0 14.5 6 14.5 6zM308 15.8l-15.4 3.7.1 82.3L308 99l.2-38.7c0-4 5.9-10.3 15.6-10.1 9.3 0 11.4 6.2 11.4 7l.3 44.8 15-2.6V51.7c.1-4.6-10-14.2-26.3-14.3-7.7 0-12 1.8-14.1 3-3.8 3-8 5.7-12.2 9.2 3.9-5 7.1-8.4 10.3-11V15.9z"/><path fill="#1793d1" fill-rule="evenodd" d="M360.1 17.2l7-1.7.3 83-7 1.1zm19 24.8l6-2.7.1 59.4-5.9 1.3zm-1.5-21.5l5-4 4 4.6-4.9 4zm19 20.4l7-1.4v12.4c0 .5 3.9-13.9 22.3-13.6 17.9.1 20.8 14 20.7 17.1l.2 43.7-6 1.3V57.3c0-1.3-2.9-12-15.5-12-12.7 0-21.4 9.2-21.4 15v38.1l-7 1.9zm111 58.5l-7 1.5V88.4c0-.5-3.8 14-22.3 13.6-17.9-.1-20.8-14-20.7-17l-.2-43.8 7.4-1.5.1 43.2c0 1.2 1.4 12.1 14 12.1 12.7 0 21.6-7.6 21.6-19.1v-34l6.8-1.8zm13.6-59l-4.8 3.8L535 68.7 515 97l5.2 3.9L539 74.6l19.3 26.9 4.8-3.8-20.7-28.8L559 45.6l-5-4.3L538.7 63zM62 1.8C56.5 15 53.2 23.6 47.3 36.4c3.6 4 8.1 8.5 15.5 13.6a64.2 64.2 0 0 1-17.3-10c-7.7 16-19.7 38.8-44 82.7 19-11.1 34-18 47.8-20.5a35.1 35.1 0 0 1-1-8.2l.1-.7c.3-12.2 6.7-21.7 14.3-21 7.5.6 13.4 11 13.1 23.4 0 2.3-.3 4.5-.7 6.6 13.7 2.6 28.4 9.4 47.3 20.4l-10.3-19c-5-3.9-10.2-9-20.8-14.4a62.4 62.4 0 0 1 16.6 6.6c-32.3-60.2-35-68.2-46-94.2z"/><path fill="gray" d="M576.8 93.3V80.6H572v-1.7h11.4v1.7h-4.7v12.7h-2m8.7 0V78.9h2.9l3.4 10.2.6 2.1.8-2.3 3.4-10h2.6v14.4h-1.8v-12l-4.2 12h-1.7L587.2 81v12.3h-1.8"/></svg>
